<svg width="21" height="24" viewBox="0 0 21 24" fill="none" xmlns="http://www.w3.org/2000/svg">
<path d="M10.1554 0.63562C8.59744 0.63562 7.33446 1.8766 7.33446 3.40742C7.33446 3.5372 7.34354 3.66489 7.3611 3.78992C3.11121 4.98248 0 8.82719 0 13.3859V20.5926C0 22.1234 1.26298 23.3644 2.82095 23.3644H17.4899C19.0478 23.3644 20.3108 22.1234 20.3108 20.5926C20.3108 19.6741 19.553 18.9295 18.6182 18.9295H12.9764C12.6648 18.9295 12.4122 18.6813 12.4122 18.3751V16.7121C12.4122 16.4059 12.6648 16.1577 12.9764 16.1577L17.4899 16.1577C19.0478 16.1577 20.3108 14.9167 20.3108 13.3859C20.3108 8.82719 17.1996 4.98248 12.9497 3.78992C12.9673 3.66489 12.9764 3.5372 12.9764 3.40742C12.9764 1.8766 11.7134 0.63562 10.1554 0.63562Z" fill="#FDF5F2"/>
</svg>
